<svg class="object-contain max-w-full h-6 md:h-7" xmlns="http://www.w3.org/2000/svg" width="137" height="25" viewBox="0 0 137 25" fill="none">
  <path d="M15.6863 22.0194V24.5835H0V0.795898H2.70045V22.0229H15.6863V22.0194Z" fill="#dd222c"/>
  <path d="M19.0469 1.69631C19.0469 0.796163 19.8072 0 20.779 0C21.7509 0 22.4753 0.796163 22.4753 1.69631C22.4753 2.59646 21.715 3.42846 20.779 3.42846C19.843 3.42846 19.0469 2.63233 19.0469 1.69631ZM19.4629 6.68119H22.0593V24.5838H19.4629V6.68119Z" fill="#dd222c"/>
  <path d="M26.3154 15.615C26.3154 10.5261 30.5759 6.26562 35.5967 6.26562C40.6174 6.26562 44.842 10.5261 44.842 15.615C44.842 20.7039 40.6174 25.0002 35.5967 25.0002C30.5759 25.0002 26.3154 20.7075 26.3154 15.615ZM42.1057 15.615C42.1057 11.8064 39.1291 8.58592 35.5967 8.58592C32.0642 8.58592 29.0517 11.8064 29.0517 15.615C29.0517 19.4236 32.0283 22.6799 35.5967 22.6799C39.165 22.6799 42.1057 19.4595 42.1057 15.615Z" fill="#dd222c"/>
  <path d="M60.2199 12.6702L69.3254 24.5837H66.001L58.5559 14.8542L51.1109 24.5837H47.8223L56.9278 12.706L47.8223 0.79248H51.1467L58.5918 10.522L66.0369 0.79248H69.3254L60.2199 12.6702Z" fill="#183c68"/>
  <path d="M76.1142 3.35678V11.182H89.0319V13.7462H76.1142V22.0233H90.4485V24.5874H73.3779V0.799805H90.4485V3.36396H76.1142V3.35678Z" fill="#dd222c"/>
  <path d="M107.035 15.7864L113.2 24.5835H110.119L104.094 16.0303H97.7932V24.5835H95.0928V0.795898H104.754C109.671 0.795898 113.515 3.94821 113.515 8.4131C113.515 12.1536 110.815 14.9939 107.039 15.79L107.035 15.7864ZM97.7896 13.4661H104.266C108.143 13.4661 110.775 11.5977 110.775 8.40951C110.775 5.22133 108.143 3.3529 104.266 3.3529H97.7896V13.4626V13.4661Z" fill="#dd222c"/>
  <path d="M117.598 0.79248H127.259C132.176 0.79248 136.02 3.94479 136.02 8.40968C136.02 12.8746 132.176 16.0269 127.259 16.0269H120.298V24.5801H117.598V0.79248ZM126.775 13.4663C130.652 13.4663 133.284 11.5979 133.284 8.40968C133.284 5.2215 130.652 3.35307 126.775 3.35307H120.298V13.4627H126.775V13.4663Z" fill="#dd222c"/>
</svg>
