<?xml version="1.0" encoding="UTF-8"?><svg xmlns="http://www.w3.org/2000/svg" xmlns:xlink="http://www.w3.org/1999/xlink" width="138px" height="80px" viewBox="0 0 138 80" version="1.1"><title>MadenSuyuLogo</title><g id="Müşteriler" stroke="none" stroke-width="1" fill="none" fill-rule="evenodd"><g id="MadenSuyuLogo" fill-rule="nonzero"><g id="Group_17086" transform="translate(16.8863, 71.7886)" fill="#F04E23"><path d="M0,1.64094496 L2.49890096,1.64094496 C3.38195584,1.57326542 4.25223157,1.88362438 4.89319202,2.49480042 C5.53415247,3.10597646 5.88553927,3.96051133 5.85992274,4.84578544 C5.86093691,5.72369941 5.50199518,6.56364472 4.86682576,7.16969237 C4.23165633,7.77574003 3.37580135,8.09489442 2.49890096,8.05270833 L0,8.05270833 L0,1.64094496 Z M0.939170276,7.19266992 L2.42393393,7.19266992 C3.08621433,7.26280693 3.74691926,7.04673236 4.23977941,6.59882232 C4.73263957,6.15091229 5.01072314,5.5138183 5.00404917,4.84786786 C5.02532644,4.17734912 4.75160002,3.53120475 4.25513409,3.08001779 C3.75866816,2.62883083 3.08936949,2.41795645 2.42393393,2.50306579 L0.939170276,2.50306579 L0.939170276,7.19266992 Z" id="Path_10198"/><path d="M10.8660543,1.56389552 C12.6691055,1.60621091 14.1006262,3.094702 14.07258,4.89803155 C14.0445338,6.7013611 12.5674171,8.14461571 10.7639221,8.1308404 C8.9604271,8.1170651 7.50552902,6.65141542 7.50503254,4.84786786 C7.49422726,3.96014317 7.84743812,3.1067208 8.48243706,2.48627884 C9.117436,1.86583687 9.97881885,1.53250938 10.8660543,1.56389552 Z M10.8660543,7.27180179 C11.523294,7.29745208 12.1623649,7.05282288 12.6344852,6.59486616 C13.1066055,6.13690945 13.3705809,5.50558383 13.3649553,4.84786786 C13.3836031,4.18623616 13.1237198,3.54714944 12.6486175,3.08630019 C12.1735152,2.62545094 11.5268114,2.38514823 10.8660543,2.42393393 C10.2088146,2.39828364 9.56974377,2.64291284 9.09762345,3.10086955 C8.62550313,3.55882626 8.36152778,4.19015188 8.36715337,4.84786786 C8.37480617,5.50141348 8.6429494,6.12488347 9.11209117,6.57995099 C9.58123294,7.0350185 10.2125787,7.28405286 10.8660543,7.27180179 Z" id="Path_10199"/><path d="M19.6226198,5.70790627 L19.6226198,4.84786786 L21.7341911,4.84786786 L21.7341911,7.5841644 C20.9789994,7.95046449 20.1495746,8.1378689 19.3102571,8.1318402 C18.4303201,8.18708175 17.5672561,7.8725673 16.9291727,7.26413457 C16.2910892,6.65570185 15.9358945,5.80856814 15.9492354,4.92699972 C15.9506012,4.02904246 16.318685,3.17060533 16.9682103,2.5505682 C17.6177356,1.93053108 18.4923367,1.60270057 19.389389,1.64302738 C20.1754402,1.66384918 20.9482273,1.85048188 21.6571416,2.19070317 L21.6571416,3.12987345 C20.9622782,2.74274372 20.1844743,2.52847267 19.389389,2.50514821 C18.7395832,2.48158102 18.1092581,2.72938293 17.649474,3.18916709 C17.1896898,3.64895125 16.9418879,4.27927637 16.9654551,4.92908214 C16.9646764,5.59975131 17.2415686,6.24082141 17.730367,6.70003149 C18.2191654,7.15924158 18.8762551,7.39561699 19.5455703,7.35301607 C20.0244499,7.35126559 20.4998703,7.27179443 20.9532845,7.11770289 L20.9532845,5.78912055 L19.6247022,5.78912055 L19.6226198,5.70790627 Z M18.2149056,-8.08020317e-14 C18.2467549,0.361934008 18.555607,0.636063061 18.9187627,0.624725239 C19.3102571,0.624725239 19.4664385,0.468543929 19.5434879,-8.08020317e-14 L20.1682131,-8.08020317e-14 C20.084191,0.669815292 19.5146954,1.17233597 18.8396308,1.17233597 C18.1645662,1.17233597 17.5950706,0.669815292 17.5110485,-1.41142653e-13 L18.2149056,-8.08020317e-14 Z" id="Path_10200"/><path d="M23.1419053,8.05270833 L25.8782018,1.64094496 L26.5029271,1.64094496 L29.3183555,8.05270833 L28.3791852,8.05270833 L27.5191468,6.17853262 L24.7828502,6.17853262 L24.0019437,8.05270833 L23.1419053,8.05270833 Z M25.1743447,5.31641179 L27.1297347,5.31641179 L26.113515,3.04865917 L25.1743447,5.31641179 Z" id="Path_10201"/><polygon id="Path_10202" points="30.8031191 8.05270833 30.8031191 1.72007683 31.7422894 1.72007683 31.7422894 7.27180179 34.6347673 7.27180179 34.6347673 8.1318402 30.8031191 8.1318402"/><polygon id="Path_10203" points="42.3730306 4.30019206 44.4846019 1.72007683 45.3446403 1.72007683 45.3446403 8.05270833 44.3992228 8.05270833 44.3992228 3.12779103 44.3992228 3.12779103 42.4438328 5.62669199 42.2876514 5.62669199 40.3322614 3.12779103 40.3322614 3.12779103 40.3322614 8.05270833 39.4014208 8.05270833 39.4014208 1.72007683 40.2614593 1.72007683"/><path d="M46.7523545,8.05270833 L49.488651,1.64094496 L50.1133763,1.64094496 L52.9288047,8.05270833 L51.9896344,8.05270833 L51.129596,6.17853262 L48.3932995,6.17853262 L47.6123929,8.05270833 L46.7523545,8.05270833 Z M48.8639258,5.31641179 L50.8193158,5.31641179 L49.8030961,3.04865917 L48.8639258,5.31641179 Z" id="Path_10204"/><path d="M54.4135683,1.64094496 L56.9124693,1.64094496 C57.7955242,1.57326542 58.6657999,1.88362438 59.3067604,2.49480042 C59.9477208,3.10597646 60.2991076,3.96051133 60.2734911,4.84578544 C60.273935,5.72333787 59.9147435,6.56273621 59.2796395,7.16832795 C58.6445355,7.7739197 57.7890081,8.09279414 56.9124693,8.05062592 L54.4135683,8.05062592 L54.4135683,1.64094496 Z M55.3527386,7.19266992 L56.8375023,7.19266992 C57.4997827,7.26280693 58.1604876,7.04673236 58.6533478,6.59882232 C59.1462079,6.15091229 59.4242915,5.5138183 59.4176175,4.84786786 C59.4388948,4.17734912 59.1651684,3.53120475 58.6687024,3.08001779 C58.1722365,2.62883083 57.5029378,2.41795645 56.8375023,2.50306579 L55.4297881,2.50306579 L55.4297881,7.19475234 L55.3527386,7.19266992 Z" id="Path_10205"/><polygon id="Path_10206" points="62.1518316 8.05270833 62.1518316 1.72007683 65.7481666 1.72007683 65.7481666 2.58011524 63.0910019 2.58011524 63.0910019 4.53550524 65.6711172 4.53550524 65.6711172 5.39554365 63.0910019 5.39554365 63.0910019 7.35093365 65.9001831 7.35093365 65.9001831 8.21097206 62.1518316 8.21097206"/><polygon id="Path_10207" points="72.6222266 6.56586226 72.6222266 1.64094496 73.4822651 1.64094496 73.4822651 7.97357647 72.7013585 7.97357647 68.4802983 3.04865917 68.4802983 7.97357647 67.6244247 7.97357647 67.6244247 1.64094496 68.3282818 1.64094496"/><path d="M78.6487428,6.40968095 C79.0074397,6.97412382 79.6213222,7.32547023 80.2896878,7.34885123 C80.7853658,7.41166409 81.2389841,7.06308446 81.3059075,6.56794468 C81.3059075,5.23936234 78.5696109,5.08318103 78.5696109,3.3631042 C78.5757351,2.86667886 78.7920193,2.39611907 79.1647839,2.06821328 C79.5375485,1.7403075 80.0318476,1.58579611 80.5250009,1.64302738 C81.0306056,1.6545206 81.5210745,1.81776841 81.9327151,2.11157131 L81.9327151,3.12779103 C81.5483619,2.71901914 81.0089333,2.49205058 80.4479515,2.50306579 C79.8232262,2.50306579 79.4317318,2.81542841 79.4317318,3.28397234 C79.4317318,4.53342282 82.1680283,4.45637337 82.1680283,6.48881282 C82.1727375,6.95999724 81.9822944,7.41213379 81.6418827,7.73795086 C81.3014709,8.06376792 80.8414282,8.23422838 80.370902,8.20888964 C79.7193143,8.20478298 79.0874099,7.9851175 78.5737758,7.5841644 L78.5737758,6.41176337 L78.6487428,6.40968095 Z" id="Path_10208"/><path d="M84.7460611,5.4725931 C84.7460611,6.1764502 84.825193,6.48881282 85.1375556,6.80117544 C85.5091958,7.17311542 86.0199819,7.37183843 86.5452698,7.34885123 C87.0943808,7.37780287 87.6312517,7.17977054 88.0300335,6.80117544 C88.3432497,6.40302912 88.4842164,5.89614909 88.4215279,5.39346123 L88.4215279,1.71799441 L89.3606982,1.71799441 L89.3606982,5.54964254 C89.2716529,6.98124712 88.0952694,8.10285803 86.6610481,8.12359639 C85.2268268,8.14433475 84.0185056,7.05720588 83.8881051,5.62877441 L83.8881051,1.64094496 L84.8272754,1.64094496 L84.8272754,5.4725931 L84.7460611,5.4725931 Z" id="Path_10209"/><polygon id="Path_10210" points="90.6101487 1.64094496 91.7055003 1.64094496 93.4255771 3.82956572 95.1456539 1.64094496 96.2410055 1.64094496 93.8962035 4.61255468 93.8962035 7.97357647 92.9570332 7.97357647 92.9570332 4.61255468"/><path d="M98.4275439,5.4725931 C98.4275439,6.1764502 98.5066757,6.48881282 98.8190383,6.80117544 C99.1906785,7.17311542 99.7014647,7.37183843 100.226753,7.34885123 C100.775864,7.37780287 101.312734,7.17977054 101.711516,6.80117544 C102.024732,6.40302912 102.165699,5.89614909 102.103011,5.39346123 L102.103011,1.71799441 L103.042181,1.71799441 L103.042181,5.54964254 C102.953136,6.98124712 101.776752,8.10285803 100.342531,8.12359639 C98.9083095,8.14433475 97.6999883,7.05720588 97.5695879,5.62877441 L97.5695879,1.64094496 L98.5087581,1.64094496 L98.5087581,5.4725931 L98.4275439,5.4725931 Z" id="Path_10211"/></g><g id="Group_17087" fill="#CF3339"><path d="M76.0686276,13.6225553 C75.8558433,19.7671858 70.7215752,24.587016 64.5757656,24.4115602 C61.6861535,24.5045326 58.8583786,23.5621872 56.6021891,21.7543955 C59.4302685,25.5423718 63.9167421,27.7274132 68.6427269,27.6184831 C73.6977506,27.719844 78.4040889,25.0507895 80.9117904,20.6604623 C83.4194918,16.2701351 83.3276495,10.8604183 80.6723645,6.55774459 C78.0170794,2.25507092 73.2228529,-0.252689777 68.1741829,0.0202044521 C63.6014921,0.0855945004 59.3218193,2.28320185 56.6042715,5.96134148 C58.7648704,4.24404743 61.4290975,3.28281889 64.1884359,3.22504493 C70.3095631,2.90638271 75.5743164,7.5132725 76.07071,13.6225553" id="Path_10212"/><polygon id="Path_10213" points="24.3143063 33.6366696 16.4969112 33.6366696 6.41176337 47.3972842 6.33263151 47.3972842 6.33263151 33.6366696 0 33.6366696 0 66.236915 6.33263151 66.236915 6.33263151 51.6183444 6.41176337 51.6183444 16.8884056 66.236915 25.0098337 66.236915 11.9530762 48.7237841"/><rect id="Rectangle_2510" x="26.8152897" y="33.713719" width="6.33263151" height="32.6002454"/><polygon id="Path_10214" points="37.6042946 33.6366696 37.6042946 39.1883945 49.8010137 39.1883945 35.4156738 66.2389974 59.1031725 66.2389974 59.1031725 60.6872724 45.577871 60.6872724 59.884079 33.6366696"/><rect id="Rectangle_2511" x="62.5433261" y="33.713719" width="6.33263151" height="32.6002454"/><polygon id="Path_10215" points="79.5087812 33.6366696 73.1761497 33.6366696 73.1761497 66.236915 87.4053082 66.236915 87.4053082 60.6872724 79.5087812 60.6872724"/><polygon id="Path_10216" points="130.01157 33.6366696 123.764317 44.9733503 118.056411 33.6366696 110.701312 33.6366696 120.78646 51.3059818 120.78646 66.2389974 127.119092 66.2389974 127.119092 51.3059818 137.439553 33.6366696"/><path d="M102.492423,33.6366696 L100.459983,33.6366696 L87.8738522,66.236915 L94.5188463,66.236915 L97.176011,59.512789 L107.965016,59.512789 L110.622181,66.236915 L117.267175,66.236915 L104.683126,33.6366696 L102.492423,33.6366696 Z M102.492423,54.5108222 L98.8960878,54.5108222 L102.492423,43.4865042 L106.088758,54.5108222 L102.492423,54.5108222 Z" id="Path_10217"/></g></g></g></svg>