<svg xmlns="http://www.w3.org/2000/svg" width="153" height="35" viewBox="0 0 153 35" fill="none"><path d="M91.4978 25.8803L92.5238 21.8369C93.2351 22.2284 93.9911 22.5378 94.7751 22.761C95.6607 23.0349 96.5802 23.1855 97.5088 23.2105C98.1697 23.2532 98.8281 23.1058 99.4039 22.7867C99.7823 22.5418 100.003 22.1229 99.9864 21.6806C100.01 21.2367 99.8005 20.8113 99.4304 20.5535C98.7604 20.129 98.0276 19.8075 97.2576 19.5997C95.3542 18.9495 93.9877 18.1528 93.1591 17.2094C92.3809 16.3828 91.9563 15.2968 91.9728 14.1746C91.9563 12.5199 92.7147 10.9481 94.0332 9.90641C95.3748 8.80432 97.213 8.23958 99.5485 8.21138C100.56 8.21138 101.568 8.31692 102.556 8.52477C103.331 8.67622 104.085 8.92033 104.799 9.24983L103.752 13.141C103.198 12.8518 102.616 12.6206 102.014 12.4498C101.266 12.2282 100.491 12.1098 99.7104 12.0977C99.1379 12.0671 98.5687 12.2049 98.0763 12.4917C97.7054 12.7358 97.4889 13.1491 97.503 13.5849C97.503 14.0296 97.7508 14.4389 98.1507 14.6532C98.8942 15.089 99.6898 15.4354 100.519 15.6827C102.278 16.2676 103.559 17.016 104.362 17.9288C105.179 18.8642 105.612 20.0613 105.579 21.2899C105.62 22.9293 104.866 24.4922 103.545 25.5073C102.189 26.5949 100.178 27.1605 97.5121 27.2024C96.3712 27.204 95.2344 27.0799 94.1216 26.8334C93.2095 26.628 92.328 26.3073 91.5011 25.8795L91.4978 25.8803Z" fill="#BC0F29"></path><path d="M142.375 5.20157L148.025 3.67571V8.61741H152.175V12.7712H148.025V19.3451C148.025 20.4383 148.187 21.2456 148.512 21.7652C148.836 22.2848 149.436 22.5434 150.311 22.541C150.693 22.541 151.006 22.541 151.249 22.5112C151.492 22.4814 151.749 22.4476 152.023 22.3928L152.057 26.661C151.555 26.8422 151.033 26.9655 150.502 27.03C149.769 27.1339 149.029 27.1838 148.289 27.1782C147.426 27.1838 146.569 27.0316 145.764 26.7287C144.263 26.1953 143.134 24.966 142.756 23.4522C142.467 22.392 142.333 21.2979 142.356 20.2015V12.772H139.883V8.61822H142.356L142.373 5.20237L142.375 5.20157Z" fill="#BC0F29"></path><path d="M135.168 26.7697H129.362V12.7833H126.91V8.6295H129.348V7.90927C129.34 6.78381 129.527 5.66399 129.9 4.59896C130.255 3.54037 130.874 2.58409 131.704 1.81875C132.42 1.17989 133.272 0.703763 134.199 0.424212C135.055 0.147077 135.952 0.00448129 136.854 0.000453164C137.435 -0.00438058 138.016 0.0294556 138.592 0.101962C139.051 0.159161 139.504 0.249391 139.948 0.373457L139.721 4.71336C139.449 4.63038 139.169 4.56834 138.887 4.52726C138.546 4.47811 138.201 4.45233 137.857 4.45072C137.049 4.40883 136.273 4.76572 135.792 5.39975C135.339 6.07647 135.115 6.87646 135.154 7.6845V8.61661H138.883V12.7704H135.167V26.7697H135.168Z" fill="#BC0F29"></path><path d="M123.686 10.7998C121.982 9.10482 119.683 8.23957 116.788 8.20574C113.761 8.23957 111.357 9.10884 109.578 10.8119C107.799 12.5158 106.89 14.8521 106.852 17.8225C106.914 20.7807 107.837 23.0735 109.625 24.7009C111.413 26.3283 113.697 27.1532 116.479 27.1758C118.133 27.1935 119.768 26.8398 121.26 26.1414C122.756 25.4405 124.012 24.3335 124.88 22.9543C125.81 21.5219 126.289 19.6996 126.318 17.4865C126.263 14.712 125.385 12.4828 123.684 10.7982L123.686 10.7998ZM119.322 21.6162C118.761 22.5459 117.739 23.1186 116.631 23.1211C115.47 23.1332 114.391 22.5378 113.802 21.5614C113.107 20.3771 112.768 19.0253 112.824 17.6622C112.79 16.3659 113.088 15.0825 113.693 13.9281C114.259 12.8526 115.401 12.1831 116.64 12.1992C117.843 12.1968 118.942 12.8631 119.473 13.916C120.079 15.0745 120.377 16.3627 120.343 17.663C120.316 19.333 119.977 20.651 119.321 21.617L119.322 21.6162Z" fill="#BC0F29"></path><path d="M60.9825 26.7697V14.4107C60.9825 13.2804 60.9668 12.2322 60.9346 11.2655C60.9024 10.2996 60.8735 9.41579 60.8479 8.61661H65.7196L65.9848 11.0625C66.5631 10.3495 67.2472 9.72353 68.0147 9.20632C68.9102 8.5876 70.1527 8.25247 71.7348 8.20574C72.8459 8.19527 73.9373 8.48932 74.8857 9.05326C75.7614 9.58416 76.443 10.3721 76.8329 11.3042C77.2055 10.8554 77.6078 10.4309 78.0366 10.0329C78.4282 9.68486 78.8528 9.37389 79.3055 9.10482C79.8186 8.80915 80.3713 8.58519 80.9487 8.43937C81.5708 8.2855 82.2103 8.21057 82.8522 8.2146C84.5631 8.15498 86.2096 8.85507 87.329 10.1175C88.4881 11.3976 89.0879 13.3867 89.1284 16.0847V26.7697H83.4825V16.8904C83.4825 15.5635 83.2611 14.542 82.8092 13.8258C82.3854 13.1088 81.5882 12.681 80.7405 12.7156C80.1251 12.7116 79.5269 12.917 79.0503 13.2965C78.5992 13.6614 78.2613 14.1416 78.0721 14.6822C77.9895 14.9134 77.9317 15.1518 77.8986 15.3943C77.8639 15.6384 77.8449 15.8849 77.8424 16.1315V26.7697H72.2139V16.5979C72.2652 15.6263 72.0413 14.6604 71.5662 13.8048C71.1482 13.1055 70.37 12.6866 69.5405 12.7156C68.8805 12.7124 68.2435 12.9533 67.7586 13.3891C67.3405 13.7654 67.0225 14.235 66.8324 14.7579C66.7399 14.9835 66.6771 15.2203 66.6457 15.4612C66.616 15.6956 66.6028 15.9325 66.6069 16.1693V26.7649L60.9825 26.7689V26.7697Z" fill="#BC0F29"></path><path d="M57.4574 8.61741V20.9427C57.4574 22.1293 57.4731 23.2073 57.5053 24.1764C57.5375 25.1456 57.5722 26.01 57.6094 26.7706H52.5897L52.3246 24.2272C51.7487 24.9611 51.0597 25.6032 50.2815 26.1301C49.343 26.7859 48.0385 27.1403 46.3697 27.1935C44.6067 27.2773 42.895 26.6022 41.6888 25.3454C40.4835 24.091 39.863 22.0721 39.8283 19.2887V8.61741H45.6477V18.3655C45.5816 19.4434 45.8203 20.5181 46.3383 21.472C46.8059 22.2123 47.6511 22.6449 48.5416 22.599C49.2356 22.6079 49.9097 22.3767 50.4451 21.9465C50.8813 21.5936 51.2217 21.1408 51.4356 20.6285C51.5141 20.4472 51.5653 20.2563 51.5876 20.0605C51.6141 19.8422 51.6273 19.623 51.6265 19.4039V8.61741H57.4574Z" fill="#BC0F29"></path><path d="M19.0542 8.61741H25.4865L28.264 17.518L28.7465 19.2517C28.9158 19.8535 29.0596 20.4045 29.181 20.9C29.4206 20.3674 29.599 19.81 29.7114 19.2388L30.1459 17.518L32.4277 8.61741H38.6172L34.2709 20.5737C33.4018 22.9559 32.5963 24.9176 31.8544 26.4604C31.2654 27.7599 30.5656 29.0086 29.7643 30.1945C29.1851 31.0396 28.5011 31.8113 27.7262 32.4913C26.8331 33.2598 25.817 33.8818 24.7182 34.3305C23.8904 34.6608 23.0229 34.8856 22.1365 35L20.9196 30.2106C21.3302 30.1429 21.7325 30.0325 22.1191 29.8803C22.5727 29.7062 23.0089 29.4936 23.4228 29.2446C23.9011 28.9892 24.3398 28.6694 24.7264 28.2956C25.1436 27.9049 25.5072 27.4634 25.8087 26.9816C25.9037 26.8511 25.9797 26.7085 26.0351 26.5579C26.0863 26.4225 26.1127 26.2783 26.1135 26.1341C26.1135 26.0108 26.097 25.8884 26.0656 25.77C26.0161 25.5742 25.9425 25.3857 25.8483 25.206L19.055 8.61741H19.0542Z" fill="#BC0F29"></path><path d="M17.62 8.61741V20.9427C17.62 22.1293 17.6357 23.2073 17.6679 24.1764C17.7001 25.1456 17.7348 26.01 17.772 26.7705H12.7523L12.4871 24.2272C11.9064 24.9555 11.2124 25.5919 10.4317 26.1132C9.4932 26.7689 8.18872 27.1234 6.51992 27.1766C4.76436 27.2547 3.06251 26.5788 1.86047 25.3285C0.655131 24.0741 0.034698 22.056 0 19.2726V8.61741H5.81935V18.3655C5.75491 19.4498 5.99697 20.5302 6.51909 21.4889C6.98669 22.2292 7.83183 22.6619 8.72241 22.6159C9.41637 22.6256 10.0913 22.3944 10.6258 21.9634C11.062 21.6105 11.4024 21.1578 11.6164 20.6454C11.6949 20.4641 11.7461 20.2732 11.7684 20.0774C11.7973 19.8599 11.8097 19.64 11.8072 19.4208V8.61741H17.62Z" fill="#BC0F29"></path><path d="M93.6796 6.16751L90.4981 11.5418L87.3166 6.16751H93.6796Z" fill="#BC0F29"></path></svg>