<?xml version="1.0" encoding="utf-8"?>
<!-- Generator: Adobe Illustrator 16.0.0, SVG Export Plug-In . SVG Version: 6.00 Build 0)  -->
<!DOCTYPE svg PUBLIC "-//W3C//DTD SVG 1.1//EN" "http://www.w3.org/Graphics/SVG/1.1/DTD/svg11.dtd">
<svg version="1.1" id="Layer_1" xmlns="http://www.w3.org/2000/svg" xmlns:xlink="http://www.w3.org/1999/xlink" x="0px" y="0px"
	 width="800px" height="167.328px" viewBox="0 0 800 167.328" enable-background="new 0 0 800 167.328" xml:space="preserve">
<polygon fill-rule="evenodd" clip-rule="evenodd" fill="#ED1C24" points="1.97,102.517 31.051,38.723 13.227,4.952 45.123,35.906 
	62.009,19.024 41.789,49.202 34.438,50.141 32.541,61.581 "/>
<path fill-rule="evenodd" clip-rule="evenodd" fill="#ED1C24" d="M0.116,144.455c0,0,33.211-60.158,38.542-73.006
	c5.326-12.845,10.025-24.124,10.025-24.124l16.288-3.448L92.861,19.44L60.901,62.05l-7.475,10.551l-8.645,0.545L44.93,84.6
	l-5.336,7.528L0.116,144.455z"/>
<path fill-rule="evenodd" clip-rule="evenodd" fill="#ED1C24" d="M17.662,167.328c0,0,31.021-63.604,36.66-76.137
	c5.64-12.533,10.969-26.32,10.969-26.32l13.47-1.882l45.116-44.803L82.52,79.28L67.903,98.282l-9.344,0.134l-0.755,12.998
	l-9.75,12.679L17.662,167.328z"/>
<polygon fill-rule="evenodd" clip-rule="evenodd" points="57.141,140.695 101.321,66.747 114.793,89.625 106.648,104.348 
	98.502,98.084 "/>
<polygon fill-rule="evenodd" clip-rule="evenodd" points="90.98,139.443 118.864,93.07 148.319,142.573 116.672,114.691 "/>
<polygon fill-rule="evenodd" clip-rule="evenodd" points="494.851,130.237 541.736,66.931 572.559,66.931 600.738,130.237 
	566.758,130.237 562.548,115.132 534.891,115.132 527.777,130.237 "/>
<polygon fill-rule="evenodd" clip-rule="evenodd" fill="#FFFFFF" points="545.165,100.646 559.912,100.646 557.172,86.161 
	552.271,86.161 "/>
<polygon fill-rule="evenodd" clip-rule="evenodd" points="615.232,66.931 605.745,130.237 637.887,130.237 646.577,66.931 "/>
<polygon fill-rule="evenodd" clip-rule="evenodd" points="670.548,66.931 702.688,66.931 675.021,96.432 697.15,130.237 
	662.379,130.237 645.786,102.754 645.786,95.38 "/>
<path fill-rule="evenodd" clip-rule="evenodd" d="M717.439,66.931l-6.853,40.301c0,0-1.585,21.513,14.226,23.005
	c15.802,1.494,52.42,0,52.42,0s12.642-5.093,15.543-20.9c2.891-15.802,6.841-42.406,6.841-42.406h-29.234l-6.589,35.823
	c0,0-0.785,11.587-7.377,11.587c-6.582,0-9.742,0-9.742,0s-7.373-0.522-6.582-10.535c0.781-10.006,7.106-36.875,7.106-36.875
	H717.439z"/>
<polygon fill-rule="evenodd" clip-rule="evenodd" points="766.596,49.285 782.267,49.285 780.92,58.765 765.24,58.765 "/>
<polygon fill-rule="evenodd" clip-rule="evenodd" points="740.98,49.285 756.654,49.285 755.299,58.765 739.627,58.765 "/>
<polygon fill-rule="evenodd" clip-rule="evenodd" fill="#ED1C24" points="155.661,66.931 179.016,100.737 179.016,130.237 
	206.675,130.237 206.675,105.04 246.011,66.931 214.665,66.931 197.455,86.6 189.463,66.931 "/>
<polygon fill-rule="evenodd" clip-rule="evenodd" fill="#ED1C24" points="432.192,66.931 510.734,66.931 510.734,81.906 
	484.322,81.906 477.721,130.237 448.874,130.237 455.48,81.906 432.886,81.906 "/>
<polygon fill-rule="evenodd" clip-rule="evenodd" fill="#ED1C24" points="393.269,66.931 384.231,130.237 414.472,130.237 
	421.417,66.931 "/>
<polygon fill-rule="evenodd" clip-rule="evenodd" fill="#ED1C24" points="399.503,46.234 422.197,46.234 419.897,58.765 
	397.194,58.765 "/>
<path fill-rule="evenodd" clip-rule="evenodd" fill="#ED1C24" d="M376.313,66.931h-43.025c0,0-35.035-0.615-41.181,27.042
	c-6.145,27.66,14.754,36.264,18.441,36.264c3.687,0,59.003,0,59.003,0l4.917-38.104h-34.419l-2.46,12.29h6.495v10.809h-16.562
	c0,0-8.049-3.88-7.585-14.122c0.462-10.237,7.275-18.305,12.846-18.772c5.573-0.462,41.484,0,41.484,0L376.313,66.931z"/>
<rect x="328.733" y="46.353" fill="#ED1C24" width="38.832" height="9.4"/>
<polygon fill-rule="evenodd" clip-rule="evenodd" fill="#ED1C24" points="252.771,66.931 242.937,130.237 273.053,130.237 
	284.117,66.931 "/>
<polygon fill-rule="evenodd" clip-rule="evenodd" fill="#ED1C24" points="261.063,46.234 283.765,46.234 281.461,58.765 
	258.761,58.765 "/>
</svg>
